<?xml version="1.0" encoding="UTF-8" standalone="no"?>
<!DOCTYPE svg PUBLIC "-//W3C//DTD SVG 1.1//EN" "http://www.w3.org/Graphics/SVG/1.1/DTD/svg11.dtd">
<svg width="100%" height="100%" viewBox="0 0 4706 833" version="1.1" xmlns="http://www.w3.org/2000/svg" xmlns:xlink="http://www.w3.org/1999/xlink" xml:space="preserve" style="fill-rule:evenodd;clip-rule:evenodd;stroke-linejoin:round;stroke-miterlimit:1.41421;">
    <g transform="matrix(4.16667,0,0,4.16667,-249.062,-1419.82)">
        <g transform="matrix(1,0,0,1,0,22)">
            <path d="M162,331.5L116.387,331.5L116.387,432L105.387,432L105.387,331.5L59.775,331.5L59.775,320.5L162,320.5L162,331.5Z" style="fill:rgb(195,22,67);"/>
            <path d="M1096.27,436.508C1096.58,436.539 1096.66,436.538 1096.97,436.606C1097.2,436.656 1097.42,436.725 1097.64,436.81C1097.75,436.853 1097.86,436.904 1097.96,436.952L1165.96,469.952C1166.25,470.103 1166.32,470.133 1166.59,470.318C1166.98,470.595 1167.33,470.935 1167.62,471.323C1167.98,471.807 1168.24,472.363 1168.38,472.949C1168.55,473.652 1168.54,474.394 1168.37,475.095C1168.25,475.563 1168.06,476.011 1167.8,476.417C1167.54,476.824 1167.21,477.188 1166.84,477.492C1166.37,477.872 1165.83,478.156 1165.25,478.323C1164.94,478.412 1164.86,478.416 1164.54,478.467L1135.08,482.039L1131.47,514.497L1131.42,514.851C1131.35,515.161 1131.34,515.242 1131.23,515.542C1131.06,515.991 1130.83,516.413 1130.53,516.789C1130.24,517.164 1129.88,517.491 1129.48,517.755C1129.08,518.019 1128.64,518.218 1128.18,518.343C1127.6,518.5 1126.99,518.54 1126.4,518.46C1125.69,518.365 1125.01,518.097 1124.42,517.685C1123.93,517.341 1123.51,516.9 1123.19,516.394C1123.02,516.124 1122.99,516.047 1122.86,515.759L1091.86,442.759C1091.75,442.467 1091.71,442.396 1091.63,442.092C1091.55,441.751 1091.5,441.4 1091.5,441.048C1091.5,440.578 1091.56,440.109 1091.7,439.661C1091.91,438.988 1092.28,438.368 1092.77,437.863C1093.18,437.442 1093.67,437.103 1094.21,436.87C1094.54,436.73 1094.88,436.629 1095.22,436.568C1095.53,436.514 1095.61,436.518 1095.92,436.501C1096.04,436.503 1096.16,436.506 1096.27,436.508ZM1124.42,496.424L1126.53,477.503L1126.58,477.153C1126.61,477.037 1126.63,476.921 1126.66,476.807C1126.76,476.465 1126.89,476.135 1127.06,475.824C1127.58,474.889 1128.43,474.157 1129.43,473.784C1129.65,473.701 1129.88,473.636 1130.11,473.589C1130.22,473.566 1130.34,473.552 1130.46,473.533L1148.28,471.373L1104.83,450.289C1111.36,465.667 1117.89,481.046 1124.42,496.424Z" style="fill:rgb(195,22,67);fill-rule:nonzero;"/>
            <path d="M1031,392.095C1028.86,392.136 1026.72,392.151 1024.57,392.155C1021.1,392.162 1017.62,392.134 1014.14,392.087C1009.8,392.028 1005.45,391.936 1001.11,391.82C997.92,391.734 994.736,391.635 991.552,391.52C987.845,391.386 984.139,391.23 980.434,391.03L979.841,390.997L979.928,431.988L968.928,432.012L968.692,320.938L974.276,320.475C979.771,320.034 985.273,319.689 990.778,319.412C998.215,319.039 1005.66,318.801 1013.11,318.76C1013.83,318.757 1014.55,318.756 1015.27,318.756C1022,318.773 1028.75,318.944 1035.46,319.558C1037.43,319.738 1039.39,319.965 1041.35,320.255C1042.3,320.396 1043.25,320.545 1044.2,320.737C1044.87,320.874 1045.53,321.033 1046.19,321.215C1049.03,322 1051.74,323.225 1054.19,324.863C1055.49,325.736 1056.72,326.721 1057.86,327.803C1058.66,328.569 1059.42,329.383 1060.13,330.237C1060.63,330.85 1061.12,331.483 1061.58,332.134C1064.7,336.569 1066.61,341.778 1067.51,347.105C1067.67,348.069 1067.8,349.038 1067.9,350.011C1068.02,351.229 1068.09,352.453 1068.12,353.677C1068.15,355.27 1068.1,356.865 1067.97,358.454C1067.81,360.529 1067.5,362.593 1067.06,364.628C1066.47,367.362 1065.63,370.045 1064.53,372.618C1062.39,377.647 1059.2,382.303 1054.93,385.77C1054.28,386.307 1053.59,386.814 1052.88,387.288C1051.4,388.285 1049.81,389.134 1048.15,389.81C1046.59,390.448 1044.97,390.931 1043.31,391.254L1067.72,432.183L1057.28,435.817L1031,392.095ZM231.5,421.5L311,421.5L311,432.5L220.5,432.5L220.5,321L231.5,321L231.5,421.5ZM618.741,432.5L604.755,432.5L649.007,376.137L605.326,320.5L619.273,320.5C631.249,335.815 643.604,351.509 655.994,367.239L692.689,320.5L706.674,320.5L662.998,376.13C677.992,395.165 692.944,414.158 707.245,432.5L693.26,432.5L656,385.043L618.741,432.5ZM581.82,331.5L501.32,331.5L501.32,371L572.954,371L572.954,382L501.32,382L501.32,421.5L581.046,421.5L581.046,432.5L490.32,432.5L490.32,320.5L581.82,320.5L581.82,331.5ZM942.012,432.5L851.287,432.5L851.287,320.5L942.787,320.5C942.787,324.167 942.787,327.833 942.787,331.5L862.287,331.5L862.287,371L933.012,371L933.012,382L862.287,382L862.287,421.5L942.012,421.5L942.012,432.5ZM454.046,419.33L467.046,419.33L467.046,432.33L454.046,432.33L454.046,419.33ZM775.841,318.756C782.576,318.773 789.319,318.944 796.029,319.558C797.998,319.738 799.963,319.965 801.919,320.255C802.871,320.396 803.824,320.545 804.768,320.737C805.438,320.874 806.104,321.033 806.763,321.215C809.601,322 812.315,323.225 814.763,324.863C816.015,325.701 817.195,326.643 818.292,327.675C819.102,328.437 819.865,329.246 820.58,330.097C821.092,330.706 821.58,331.336 822.042,331.984C825.225,336.45 827.17,341.719 828.079,347.105C828.241,348.069 828.371,349.038 828.469,350.011C828.592,351.229 828.665,352.453 828.69,353.677C828.722,355.27 828.674,356.866 828.545,358.454C828.377,360.529 828.073,362.593 827.633,364.628C827.042,367.362 826.205,370.045 825.106,372.618C823.241,376.984 820.602,381.061 817.143,384.335C816.616,384.833 816.071,385.312 815.508,385.77C814.848,386.307 814.163,386.814 813.457,387.288C811.97,388.285 810.384,389.134 808.726,389.81C807.076,390.483 805.357,390.984 803.605,391.306C802.242,391.557 800.862,391.687 799.481,391.785C798.073,391.885 796.664,391.949 795.254,391.998C791.886,392.115 788.515,392.149 785.145,392.155C781.668,392.162 778.191,392.134 774.715,392.087C770.368,392.028 766.022,391.936 761.677,391.82C758.492,391.734 755.308,391.635 752.124,391.52C748.417,391.386 744.711,391.23 741.006,391.03L740.413,390.997L740.5,431.988L729.5,432.012L729.264,320.938L734.848,320.475C740.343,320.034 745.845,319.689 751.35,319.412C758.787,319.039 766.231,318.801 773.677,318.76C774.398,318.757 775.12,318.756 775.841,318.756ZM1143.53,432L1132.53,432L1132.53,331.5L1086.92,331.5L1086.92,320.5L1189.15,320.5L1189.15,331.5L1143.53,331.5L1143.53,432ZM429,432L338.275,432L338.275,320L429.775,320C429.775,323.667 429.775,327.333 429.775,331L349.275,331L349.275,371L420,371L420,382L349.275,382L349.275,421L429,421L429,432ZM194.082,432L183.082,432L183.082,321L194.082,321L194.082,432ZM1013.86,329.757C1007.98,329.779 1002.1,329.925 996.22,330.173C990.955,330.396 985.693,330.688 980.435,331.047L979.714,331.097L979.817,379.977C980.225,380.001 980.633,380.024 981.04,380.047C984.675,380.243 988.312,380.395 991.95,380.527C995.099,380.641 998.249,380.739 1001.4,380.824C1005.22,380.926 1009.04,381.009 1012.87,381.067C1016.54,381.124 1020.22,381.159 1023.9,381.156C1025.95,381.155 1028,381.142 1030.05,381.109C1031.78,381.081 1033.51,381.04 1035.25,380.969C1036.32,380.925 1037.4,380.87 1038.48,380.787C1039.45,380.712 1040.42,380.62 1041.38,380.423C1042.91,380.106 1044.38,379.549 1045.74,378.779C1046.12,378.565 1046.49,378.335 1046.85,378.091C1049.31,376.416 1051.27,374.092 1052.78,371.541C1053.04,371.101 1053.29,370.652 1053.52,370.197C1053.85,369.575 1054.14,368.941 1054.42,368.297C1055.28,366.282 1055.92,364.174 1056.37,362.029C1056.71,360.372 1056.94,358.691 1057.05,357.002C1057.14,355.597 1057.15,354.187 1057.08,352.781C1057.02,351.674 1056.91,350.57 1056.75,349.474C1056.62,348.671 1056.47,347.871 1056.29,347.079C1056.15,346.477 1055.99,345.878 1055.81,345.286C1054.82,341.955 1053.18,338.755 1050.75,336.243C1050.41,335.892 1050.05,335.555 1049.68,335.234C1049.14,334.767 1048.57,334.335 1047.98,333.943C1046.67,333.08 1045.24,332.417 1043.74,331.957C1043.17,331.782 1042.59,331.636 1042,331.517C1041.34,331.381 1040.66,331.277 1039.99,331.175C1038.44,330.939 1036.89,330.753 1035.33,330.597C1032.52,330.316 1029.71,330.133 1026.89,330.006C1023.25,329.841 1019.6,329.774 1015.95,329.758C1015.25,329.756 1014.55,329.756 1013.86,329.757ZM774.427,329.757C768.547,329.779 762.667,329.925 756.792,330.173C751.527,330.396 746.265,330.688 741.007,331.047L740.286,331.097L740.389,379.977C740.797,380.001 741.205,380.024 741.612,380.047C745.247,380.243 748.884,380.395 752.522,380.527C755.671,380.641 758.821,380.739 761.972,380.824C765.793,380.926 769.615,381.009 773.437,381.067C777.116,381.124 780.796,381.159 784.475,381.156C786.524,381.155 788.573,381.142 790.621,381.109C792.354,381.081 794.086,381.04 795.818,380.969C796.896,380.925 797.974,380.87 799.051,380.787C800.022,380.712 800.994,380.62 801.949,380.423C803.479,380.106 804.955,379.549 806.315,378.779C806.693,378.565 807.062,378.335 807.421,378.091C809.882,376.417 811.847,374.092 813.353,371.543C813.614,371.102 813.861,370.653 814.096,370.198C814.417,369.575 814.715,368.941 814.99,368.297C815.851,366.281 816.494,364.174 816.94,362.029C817.285,360.372 817.512,358.691 817.622,357.003C817.714,355.597 817.725,354.187 817.652,352.78C817.594,351.674 817.484,350.569 817.318,349.474C817.197,348.67 817.045,347.871 816.861,347.079C816.722,346.477 816.563,345.879 816.386,345.287C815.386,341.956 813.754,338.756 811.319,336.243C810.979,335.892 810.623,335.555 810.254,335.234C809.687,334.743 809.087,334.29 808.457,333.881C806.962,332.911 805.308,332.202 803.585,331.751C802.919,331.577 802.244,331.448 801.564,331.334C801.059,331.25 800.553,331.171 800.046,331.098C798.571,330.884 797.09,330.712 795.607,330.568C792.899,330.303 790.183,330.129 787.465,330.006C783.588,329.83 779.707,329.766 775.826,329.756C775.36,329.756 774.893,329.757 774.427,329.757Z" style="fill:rgb(51,51,51);"/>
        </g>
    </g>
</svg>
